<svg width="77" height="77" viewBox="0 0 77 77" fill="none" xmlns="http://www.w3.org/2000/svg">
<circle cx="38.5" cy="38.5" r="38.5" fill="#DBFF00"/>
<path d="M45.7287 26.3935C42.0728 22.812 37.6571 21 32.5983 21C27.5396 21 23.1291 22.812 19.4892 26.3935C15.8492 29.975 14 34.3589 14 39.4177C14 44.4817 15.8492 48.8443 19.4892 52.3993C23.1291 55.9489 27.5396 57.7503 32.5983 57.7503H37.1576V56.9585H32.5983C27.7521 56.9585 23.5277 55.2368 20.0418 51.836C16.5559 48.4405 14.7918 44.2638 14.7918 39.423C14.7918 34.5821 16.5613 30.3895 20.0471 26.9621C23.533 23.5347 27.7574 21.7918 32.6036 21.7918C37.4498 21.7918 41.6796 23.5294 45.1814 26.9621C48.6832 30.3895 50.458 34.5821 50.458 39.423V57.7768H51.2445V39.423C51.2392 34.3589 49.3846 29.975 45.7287 26.3935Z" fill="black"/>
<path d="M32.5716 49.8116C29.7234 49.8116 27.2791 48.786 25.3076 46.7615C23.3362 44.7369 22.3372 42.266 22.3372 39.4178C22.3372 36.5696 23.3362 34.0827 25.313 32.0263C27.2844 29.9752 29.7287 28.9337 32.5716 28.9337C35.4198 28.9337 37.8589 29.9752 39.8303 32.0263C41.8017 34.0827 42.806 36.5696 42.806 39.4178V57.7717H43.5924V39.4178C43.5924 36.3624 42.5191 33.6895 40.3988 31.4843C38.2733 29.2684 35.6377 28.1472 32.5716 28.1472C29.5055 28.1472 26.8699 29.2684 24.7444 31.4843C22.6242 33.6948 21.5508 36.3624 21.5508 39.4178C21.5508 42.4786 22.6242 45.1355 24.7497 47.3141C26.8752 49.4928 29.5056 50.6034 32.5769 50.6034H37.1574V49.8169H32.5716V49.8116Z" fill="black"/>
<path d="M32.5713 52.0485C29.0961 52.0485 26.115 50.7945 23.7026 48.3235C21.306 45.8633 20.0945 42.8663 20.0945 39.4176C20.0945 35.9743 21.306 32.9667 23.6919 30.4745C26.0991 27.9664 29.0908 26.691 32.566 26.691C36.0465 26.691 39.0329 27.961 41.44 30.4745C43.8313 32.9613 45.0428 35.969 45.0428 39.4176V56.087H45.8293V39.4176C45.8293 35.7617 44.5433 32.5681 42.0086 29.9325C39.4474 27.2596 36.2697 25.9099 32.566 25.9099C28.8623 25.9099 25.6846 27.2649 23.1234 29.9325C20.5887 32.5734 19.3027 35.7617 19.3027 39.4176C19.3027 43.0788 20.594 46.2618 23.134 48.8762C25.6952 51.5065 28.8676 52.8403 32.566 52.8403H37.1465V52.0538H32.5713V52.0485Z" fill="black"/>
<path d="M32.5975 54.7161C28.2987 54.7161 24.7012 53.2495 21.6033 50.2259C18.5213 47.2236 17.0281 43.69 17.0281 39.4177C17.0281 35.14 18.5266 31.5851 21.6139 28.5562C24.7118 25.5114 28.304 24.0342 32.5975 24.0342C36.8964 24.0342 40.4992 25.5167 43.6077 28.5615C46.7057 31.5957 48.2095 35.1454 48.2095 39.423V54.0147H48.9959V39.423C48.9959 34.9275 47.4124 31.1866 44.1551 27.9983C40.8871 24.7994 37.1036 23.2424 32.5922 23.2424C28.0808 23.2424 24.308 24.7941 21.056 27.993C17.8145 31.1813 16.2363 34.9169 16.2363 39.4177C16.2363 43.9131 17.8092 47.6381 21.0506 50.7945C24.3027 53.9668 28.0808 55.5079 32.5922 55.5079H37.1515V54.7161H32.5975Z" fill="black"/>
<path d="M61.7136 21H60.9219V57.7715H61.7136V21Z" fill="black"/>
<path d="M54.157 21H53.3652V57.7715H54.157V21Z" fill="black"/>
<path d="M56.5437 23.386H55.752V57.7769H56.5437V23.386Z" fill="black"/>
<path d="M59.3328 24.8101H58.541V57.7716H59.3328V24.8101Z" fill="black"/>
</svg>
